<svg xmlns="http://www.w3.org/2000/svg" viewBox="0 0 45 45">
  <defs>
    <style>
      .cls-1 {
        fill: #505155;
      }

      .cls-2 {
        fill: #fff;
      }
    </style>
  </defs>
  <g id="Capa_2" data-name="Capa 2">
    <g id="Capa_1-2" data-name="Capa 1">
      <g id="facebook">
        <circle id="Elipse_1" data-name="Elipse 1" class="cls-1" cx="22.5" cy="22.5" r="22.5"/>
        <g id="facebook-logo">
          <path id="Trazado_1" data-name="Trazado 1" class="cls-2" d="M28.52,10.47H25.4c-3.51,0-5.78,2.33-5.78,5.93v2.73H16.48a.49.49,0,0,0-.49.49v4a.49.49,0,0,0,.49.49h3.14v10a.49.49,0,0,0,.49.49h4.1a.48.48,0,0,0,.49-.49v-10h3.68a.49.49,0,0,0,.49-.49h0v-4a.49.49,0,0,0-.49-.49H24.7V16.8c0-1.11.27-1.68,1.72-1.68h2.1a.49.49,0,0,0,.49-.49h0V11a.49.49,0,0,0-.49-.49Z"/>
        </g>
      </g>
    </g>
  </g>
</svg>
