<svg xmlns="http://www.w3.org/2000/svg" width="156" height="65" viewBox="0 0 156 65">
  <g id="Grupo_54" data-name="Grupo 54" transform="translate(-2862 2155)">
    <rect id="Rectángulo_12" data-name="Rectángulo 12" width="156" height="65" transform="translate(2862 -2155)" fill="none"/>
    <g id="Grupo_53" data-name="Grupo 53" transform="translate(3 1)">
      <g id="Grupo_53-2" data-name="Grupo 53" transform="translate(2934.168 -2132.862)">
        <path id="Trazado_50" data-name="Trazado 50" d="M770.729,432.465H765.39V416.708h5.448a8.163,8.163,0,0,1,4.033.943,6.372,6.372,0,0,1,2.593,2.708,10.239,10.239,0,0,1,0,8.442,6.371,6.371,0,0,1-2.625,2.721A8.449,8.449,0,0,1,770.729,432.465Zm-2.485-2.472h2.345a5.62,5.62,0,0,0,2.746-.6,3.823,3.823,0,0,0,1.657-1.81,8.436,8.436,0,0,0,0-6.015,3.862,3.862,0,0,0-1.638-1.8,5.485,5.485,0,0,0-2.676-.593h-2.434Z" transform="translate(-765.39 -415.949)"/>
        <path id="Trazado_51" data-name="Trazado 51" d="M794.728,434.851a6.015,6.015,0,0,1-3.071-.739A4.983,4.983,0,0,1,789.675,432a7.786,7.786,0,0,1,0-6.423,5.174,5.174,0,0,1,1.95-2.154,5.461,5.461,0,0,1,2.95-.777,6.162,6.162,0,0,1,2.064.35,4.862,4.862,0,0,1,1.72,1.083,5.1,5.1,0,0,1,1.185,1.861,7.516,7.516,0,0,1,.427,2.682v.854h-9.685V427.6H797.3a3.008,3.008,0,0,0-.344-1.427,2.51,2.51,0,0,0-.943-.988,2.651,2.651,0,0,0-1.4-.363,2.7,2.7,0,0,0-1.5.414,2.816,2.816,0,0,0-1.007,1.077,3.058,3.058,0,0,0-.363,1.459v1.638a3.753,3.753,0,0,0,.44,1.746,2.626,2.626,0,0,0,1.051,1.121,3.136,3.136,0,0,0,1.587.389,3.245,3.245,0,0,0,1.1-.172,2.44,2.44,0,0,0,.854-.51,2.147,2.147,0,0,0,.5-.828l2.6.293a4.021,4.021,0,0,1-.93,1.8,4.529,4.529,0,0,1-1.759,1.185A6.549,6.549,0,0,1,794.728,434.851Z" transform="translate(-773.95 -418.105)"/>
        <path id="Trazado_52" data-name="Trazado 52" d="M819,425.93l-2.549.274a2.05,2.05,0,0,0-.376-.72,1.861,1.861,0,0,0-.707-.548,2.689,2.689,0,0,0-1.1-.21,2.727,2.727,0,0,0-1.459.376,1.121,1.121,0,0,0-.586.956,1.02,1.02,0,0,0,.382.835,3.186,3.186,0,0,0,1.274.535l2.013.427A5.2,5.2,0,0,1,818.4,429a2.746,2.746,0,0,1,.828,2.058,3.186,3.186,0,0,1-.637,1.962,4.293,4.293,0,0,1-1.784,1.332,6.684,6.684,0,0,1-2.612.471,5.977,5.977,0,0,1-3.492-.911,3.638,3.638,0,0,1-1.58-2.549l2.714-.261a1.912,1.912,0,0,0,.79,1.211,2.734,2.734,0,0,0,1.561.408,2.8,2.8,0,0,0,1.593-.408,1.21,1.21,0,0,0,.605-1.007,1.064,1.064,0,0,0-.331-.79,2.809,2.809,0,0,0-1.2-.51l-2.013-.421a4.791,4.791,0,0,1-2.517-1.2,2.925,2.925,0,0,1-.809-2.134,3.039,3.039,0,0,1,.6-1.911,3.823,3.823,0,0,1,1.682-1.242,6.562,6.562,0,0,1,2.5-.446,5.416,5.416,0,0,1,3.275.886A3.721,3.721,0,0,1,819,425.93Z" transform="translate(-781.257 -418.105)"/>
        <path id="Trazado_53" data-name="Trazado 53" d="M829.919,418.54a1.574,1.574,0,0,1-1.141-.44,1.44,1.44,0,0,1-.1-2.039l.1-.1a1.688,1.688,0,0,1,2.275,0,1.44,1.44,0,0,1,.1,2.039c0,.038-.07.07-.1.1A1.6,1.6,0,0,1,829.919,418.54Zm-1.4,13.495V420.215H831.3v11.819Z" transform="translate(-788.217 -415.519)"/>
        <path id="Trazado_54" data-name="Trazado 54" d="M842.385,439.26a7.379,7.379,0,0,1-2.549-.4,4.575,4.575,0,0,1-1.733-1.07,3.612,3.612,0,0,1-.9-1.466l2.5-.637a2.753,2.753,0,0,0,.5.637,2.39,2.39,0,0,0,.873.561,3.644,3.644,0,0,0,1.383.229,3.249,3.249,0,0,0,1.963-.567,2.128,2.128,0,0,0,.777-1.841v-2.236h-.134a4.309,4.309,0,0,1-.637.886,3.313,3.313,0,0,1-1.083.765,4.136,4.136,0,0,1-1.688.306,4.785,4.785,0,0,1-2.466-.637,4.46,4.46,0,0,1-1.752-1.911,7.048,7.048,0,0,1-.637-3.186,7.493,7.493,0,0,1,.637-3.288,4.747,4.747,0,0,1,1.759-2.039,4.5,4.5,0,0,1,2.466-.695,3.619,3.619,0,0,1,1.714.35,3.331,3.331,0,0,1,1.07.835,4.645,4.645,0,0,1,.637.924h.127v-1.962h2.746v12.01a4.078,4.078,0,0,1-.726,2.472,4.3,4.3,0,0,1-2.02,1.51,7.742,7.742,0,0,1-2.823.452Zm0-7.009a2.485,2.485,0,0,0,2.453-1.669,5.325,5.325,0,0,0,.325-1.943,5.493,5.493,0,0,0-.319-1.95,2.886,2.886,0,0,0-.943-1.274,2.727,2.727,0,0,0-3.071,0,2.88,2.88,0,0,0-.937,1.325,5.428,5.428,0,0,0-.319,1.911,5.194,5.194,0,0,0,.319,1.911,2.74,2.74,0,0,0,.949,1.274,2.606,2.606,0,0,0,1.542.452Z" transform="translate(-791.298 -418.112)"/>
        <path id="Trazado_55" data-name="Trazado 55" d="M861.554,427.7v6.926H858.77V422.8h2.657v2.013h.14a3.376,3.376,0,0,1,1.306-1.58,4,4,0,0,1,2.217-.586,4.288,4.288,0,0,1,2.134.522,3.569,3.569,0,0,1,1.415,1.516,5.163,5.163,0,0,1,.5,2.408v7.525h-2.784v-7.092a2.618,2.618,0,0,0-.637-1.854,2.147,2.147,0,0,0-1.688-.637,2.548,2.548,0,0,0-1.274.319,2.192,2.192,0,0,0-.886.918,3.027,3.027,0,0,0-.312,1.421Z" transform="translate(-799.272 -418.105)"/>
      </g>
      <g id="Grupo_55" data-name="Grupo 55" transform="translate(2870 -2149)">
        <g id="Grupo_54-2" data-name="Grupo 54" transform="translate(12.858 17.535)">
          <path id="Trazado_56" data-name="Trazado 56" d="M684.86,420.106v-2.4h12.571v2.4H692.6v13.38h-2.829v-13.38Z" transform="translate(-684.86 -417.71)"/>
          <path id="Trazado_57" data-name="Trazado 57" d="M708.38,433.467V417.71h10.093v2.4h-7.238v4.275h6.55v2.389h-6.55v6.7Z" transform="translate(-693.394 -417.71)"/>
        </g>
        <circle id="Elipse_13" data-name="Elipse 13" cx="25.5" cy="25.5" r="25.5" transform="translate(0 0)" fill="none" stroke="#000" stroke-miterlimit="10" stroke-width="3.5"/>
      </g>
    </g>
  </g>
</svg>
