<svg xmlns="http://www.w3.org/2000/svg" viewBox="0 0 45 45">
  <defs>
    <style>
      .cls-1 {
        fill: #505155;
      }

      .cls-2 {
        fill: #fff;
      }
    </style>
  </defs>
  <g id="Capa_2" data-name="Capa 2">
    <g id="Capa_1-2" data-name="Capa 1">
      <g id="whatsapp">
        <circle id="Elipse_2" data-name="Elipse 2" class="cls-1" cx="22.5" cy="22.5" r="22.5"/>
        <path id="whatsapp-2" data-name="whatsapp" class="cls-2" d="M30.45,14.5A11.18,11.18,0,0,0,12.85,28l-1.58,5.79,5.93-1.55a11.18,11.18,0,0,0,5.34,1.36h0a11.18,11.18,0,0,0,7.9-19.09ZM22.54,31.7a9.27,9.27,0,0,1-4.73-1.3l-.34-.2L14,31.12l.94-3.43-.22-.36a9.27,9.27,0,1,1,7.87,4.37Zm5.1-7c-.28-.14-1.65-.82-1.91-.91s-.44-.14-.62.14-.73.91-.89,1.09-.32.21-.6.07a7.57,7.57,0,0,1-2.25-1.39,8.53,8.53,0,0,1-1.56-1.93c-.16-.28,0-.43.13-.57s.27-.33.41-.49a1.83,1.83,0,0,0,.28-.46.5.5,0,0,0,0-.49c-.07-.14-.63-1.52-.86-2.08s-.46-.47-.63-.48h-.54a1.06,1.06,0,0,0-.74.35,3.13,3.13,0,0,0-1,2.34A5.46,5.46,0,0,0,18,22.81,12.52,12.52,0,0,0,22.78,27c.52.22,1,.42,1.59.59a3.88,3.88,0,0,0,1.76.11A2.88,2.88,0,0,0,28,26.4a2.33,2.33,0,0,0,.16-1.33c-.07-.12-.26-.19-.54-.33Z"/>
      </g>
    </g>
  </g>
</svg>
