<svg xmlns="http://www.w3.org/2000/svg" viewBox="0 0 45 45">
  <defs>
    <style>
      .cls-1 {
        fill: #505155;
      }

      .cls-2 {
        fill: #fff;
      }
    </style>
  </defs>
  <g id="Capa_2" data-name="Capa 2">
    <g id="Capa_1-2" data-name="Capa 1">
      <g id="youtube">
        <circle id="Elipse_3" data-name="Elipse 3" class="cls-1" cx="22.5" cy="22.5" r="22.5"/>
        <path id="youtube-2" data-name="youtube" class="cls-2" d="M22.58,13.88h.14c1.26,0,7.64,0,9.36.52a3.05,3.05,0,0,1,2.17,2.17,13.17,13.17,0,0,1,.34,2.15l0,.16,0,.4v.16c.1,1.4.11,2.72.12,3v.12c0,.3,0,1.7-.13,3.16v.16l0,.16a13.94,13.94,0,0,1-.36,2.39,3.05,3.05,0,0,1-2.17,2.17c-1.77.48-8.53.51-9.47.52h-.22c-.47,0-2.43,0-4.49-.08H17a24.08,24.08,0,0,1-4.06-.4,3.08,3.08,0,0,1-2.17-2.18A13.65,13.65,0,0,1,10.39,26l0-.16v-.16c-.08-1-.12-2.07-.13-3.12V22.4c0-.33,0-1.46.1-2.72l0-.16v-.24l0-.4,0-.16a13.17,13.17,0,0,1,.34-2.15,3.05,3.05,0,0,1,2.17-2.17A24.09,24.09,0,0,1,17,14l.26,0h.65c1.46,0,2.92-.07,4.38-.08ZM20.05,18.8v7.39l6.37-3.69Z"/>
      </g>
    </g>
  </g>
</svg>
